<?xml version="1.0" encoding="UTF-8" standalone="no"?>
<svg
   width="256"
   height="128"
   version="1.1"
   id="svg6"
   sodipodi:docname="bus.svg"
   inkscape:version="1.4 (e7c3feb100, 2024-10-09)"
   xmlns:inkscape="http://www.inkscape.org/namespaces/inkscape"
   xmlns:sodipodi="http://sodipodi.sourceforge.net/DTD/sodipodi-0.dtd"
   xmlns="http://www.w3.org/2000/svg"
   xmlns:svg="http://www.w3.org/2000/svg">
  <defs
     id="defs6" />
  <sodipodi:namedview
     id="namedview6"
     pagecolor="#ffffff"
     bordercolor="#000000"
     borderopacity="0.25"
     inkscape:showpageshadow="2"
     inkscape:pageopacity="0.0"
     inkscape:pagecheckerboard="0"
     inkscape:deskcolor="#d1d1d1"
     inkscape:zoom="3.3042669"
     inkscape:cx="121.50955"
     inkscape:cy="87.160029"
     inkscape:window-width="1600"
     inkscape:window-height="934"
     inkscape:window-x="0"
     inkscape:window-y="0"
     inkscape:window-maximized="1"
     inkscape:current-layer="g4" />
  <g
     id="g7"
     transform="matrix(2.1288655,0,0,1,-7.6487481,1.1394715)">
    <g
       fill="#ffffff"
       transform="matrix(0.12333357,0,0,0.12333357,0.78907609,-0.59459331)"
       id="g4">
      <path
         fill="#478cbf"
         d="M 105,673 H 919 V 427 c 20,-26 38.66667,-53 56,-81 -23.33333,-39.33333 -51,-75.33333 -83,-108 -28.66667,13.33333 -56,29 -82,47 -26.66667,-24.66667 -56,-46 -88,-64 4.66667,-34 7.33333,-68 8,-102 -39.33333,-18.66667 -80.33333,-32.666667 -123,-42 -17.33333,28.66667 -32.66667,58.33333 -46,89 -32.66667,-4.66667 -65.33333,-4.66667 -98,0 -13.33333,-30.66667 -28.66667,-60.33333 -46,-89 -42.66667,9.333333 -83.66667,23.33333 -123,42 0.66667,34 3.33333,68 8,102 -32,18 -61.33333,39.33333 -88,64 -26,-18 -53.33333,-33.66667 -82,-47 -32,32.66667 -59.666667,68.66667 -83,108 17.333333,28 36,55 56,81 z m 0,-6.2612 V 745 c 0,276 813,276 814,0 v -73.35355 z"
         id="path2"
         style="fill:#008080"
         sodipodi:nodetypes="ccccccccccccccccccccsccc" />
    </g>
    <g
       fill="#414042"
       transform="matrix(0.12333357,0,0,0.12333357,0.78907609,-0.59459331)"
       id="g6" />
  </g>
</svg>
