<?xml version="1.0" encoding="UTF-8" standalone="no"?>
<!-- Created with Inkscape (http://www.inkscape.org/) -->

<svg
   width="6.5mm"
   height="6.5mm"
   viewBox="0 0 6.5 6.5"
   version="1.1"
   id="svg1"
   inkscape:version="1.4 (e7c3feb100, 2024-10-09)"
   sodipodi:docname="documentation.svg"
   xml:space="preserve"
   inkscape:export-filename="info.png"
   inkscape:export-xdpi="96"
   inkscape:export-ydpi="96"
   xmlns:inkscape="http://www.inkscape.org/namespaces/inkscape"
   xmlns:sodipodi="http://sodipodi.sourceforge.net/DTD/sodipodi-0.dtd"
   xmlns="http://www.w3.org/2000/svg"
   xmlns:svg="http://www.w3.org/2000/svg"><sodipodi:namedview
     id="namedview1"
     pagecolor="#4e4e4e"
     bordercolor="#000000"
     borderopacity="0.25"
     inkscape:showpageshadow="2"
     inkscape:pageopacity="0.0"
     inkscape:pagecheckerboard="0"
     inkscape:deskcolor="#d1d1d1"
     inkscape:document-units="mm"
     inkscape:zoom="15.866383"
     inkscape:cx="7.1534894"
     inkscape:cy="17.930993"
     inkscape:window-width="1600"
     inkscape:window-height="933"
     inkscape:window-x="0"
     inkscape:window-y="0"
     inkscape:window-maximized="1"
     inkscape:current-layer="layer1" /><defs
     id="defs1" /><g
     inkscape:label="Layer 1"
     inkscape:groupmode="layer"
     id="layer1"
     transform="matrix(0.45329582,0,0,0.45329582,21.785829,5.4237477)"><g
       id="g11"
       transform="translate(156.49995,-87.312714)"><g
         id="g8"><g
           id="g2"
           transform="translate(49.426248,91.462147)" /></g></g><g
       id="g13"
       transform="matrix(0.17992016,0,0,0.17992016,-69.557443,-12.349667)"><path
         style="fill:none;stroke:#ffffff;stroke-width:3;stroke-linecap:round;stroke-linejoin:round;stroke-dasharray:none;stroke-opacity:1"
         d="M 159.54028,67.04196 V 26.947843 c 0,0 11.60359,-9.543579 22.44665,-9.795743 10.84306,-0.252165 14.62149,3.792248 14.62149,3.792248 v 41.029487 c 0,0 -5.05135,-4.766281 -14.38143,-3.253296 -9.33008,1.512985 -22.68671,8.321421 -22.68671,8.321421 z"
         id="path10"
         sodipodi:nodetypes="ccsccsc" /><path
         style="fill:none;fill-opacity:0;stroke:#ffffff;stroke-width:3;stroke-linecap:round;stroke-linejoin:round;stroke-dasharray:none;stroke-opacity:1"
         d="M 159.11441,66.832496 V 26.738379 c 0,0 -11.60359,-9.543579 -22.44665,-9.795743 -10.84306,-0.252165 -14.62149,3.792248 -14.62149,3.792248 v 41.029487 c 0,0 5.05135,-4.766281 14.38143,-3.253296 9.33008,1.512985 22.68671,8.321421 22.68671,8.321421 z"
         id="path11"
         sodipodi:nodetypes="ccsccsc" /></g></g></svg>
