<?xml version="1.0" encoding="UTF-8" standalone="no"?>
<svg
   height="50"
   viewBox="0 -960 2000 2000"
   width="50"
   fill="#e3e3e3"
   version="1.1"
   id="svg1"
   sodipodi:docname="plus.svg"
   inkscape:version="1.4 (e7c3feb100, 2024-10-09)"
   xmlns:inkscape="http://www.inkscape.org/namespaces/inkscape"
   xmlns:sodipodi="http://sodipodi.sourceforge.net/DTD/sodipodi-0.dtd"
   xmlns="http://www.w3.org/2000/svg"
   xmlns:svg="http://www.w3.org/2000/svg">
  <defs
     id="defs1" />
  <sodipodi:namedview
     id="namedview1"
     pagecolor="#ffffff"
     bordercolor="#000000"
     borderopacity="0.25"
     inkscape:showpageshadow="2"
     inkscape:pageopacity="0.0"
     inkscape:pagecheckerboard="0"
     inkscape:deskcolor="#d1d1d1"
     inkscape:zoom="9.7706731"
     inkscape:cx="7.7783792"
     inkscape:cy="24.307435"
     inkscape:window-width="1600"
     inkscape:window-height="933"
     inkscape:window-x="0"
     inkscape:window-y="0"
     inkscape:window-maximized="1"
     inkscape:current-layer="svg1" />
  <path
     d="m 906.32792,133.67209 v 281.01627 q 0,39.81064 26.93072,66.74137 26.93073,26.93073 66.74136,26.93073 39.8106,0 66.7413,-26.93073 26.9308,-26.93073 26.9308,-66.74137 V 133.67209 h 281.0163 q 39.8106,0 66.7414,-26.93073 26.9307,-26.930726 26.9307,-66.741358 0,-39.8106322 -26.9307,-66.74136 -26.9308,-26.930729 -66.7414,-26.930729 H 1093.6721 V -334.68837 q 0,-39.81063 -26.9308,-66.74137 -26.9307,-26.93073 -66.7413,-26.93073 -39.81063,0 -66.74136,26.93073 -26.93072,26.93074 -26.93072,66.74137 V -53.672087 H 625.31164 q -39.81064,0 -66.74137,26.930729 -26.93073,26.9307278 -26.93073,66.74136 0,39.810632 26.93073,66.741358 26.93073,26.93073 66.74137,26.93073 z M 1000,976.72093 q -194.36958,0 -365.32116,-73.76677 Q 463.72726,829.18738 337.26993,702.73007 210.81262,576.27274 137.04584,405.32116 63.279071,234.36959 63.279071,40.000002 q 0,-194.369592 73.766769,-365.321162 73.76678,-170.95158 200.22409,-297.40892 126.45733,-126.45732 297.40891,-200.22409 170.95158,-73.76678 365.32116,-73.76678 194.3697,0 365.3212,73.76678 170.9515,73.76677 297.4089,200.22409 126.4573,126.45734 200.2241,297.40892 73.7667,170.95157 73.7667,365.321162 0,194.369588 -73.7667,365.321158 -73.7668,170.95158 -200.2241,297.40891 Q 1536.2727,829.18738 1365.3212,902.95416 1194.3697,976.72093 1000,976.72093 Z m 0,-187.34419 q 313.8016,0 531.5892,-217.78762 217.7874,-217.78762 217.7874,-531.589118 0,-313.801512 -217.7874,-531.589132 Q 1313.8016,-709.37675 1000,-709.37675 q -313.8015,0 -531.58912,217.78762 -217.78762,217.78762 -217.78762,531.589132 0,313.801498 217.78762,531.589118 Q 686.1985,789.37674 1000,789.37674 Z m 0,-749.376738 z"
     id="path1"
     style="stroke-width:2.34179" />
</svg>
